<svg xmlns="http://www.w3.org/2000/svg" xmlns:xlink="http://www.w3.org/1999/xlink" version="1.1" x="0" y="0" width="600" height="200" viewBox="0 0 600 200" enable-background="new 0 0 600 200" xml:space="preserve">
 <path fill-rule="evenodd"  fill="rgb(255, 255, 255)"
 d="M11.497,37.001 C5.156,37.001 -0.001,31.837 -0.001,25.490 L-0.001,11.416 C-0.001,5.440 4.612,0.468 10.543,-0.007 L12.451,-0.007 C18.383,0.472 22.996,5.444 22.996,11.416 L22.996,25.490 C22.996,31.837 17.838,37.001 11.497,37.001 ZM21.088,11.416 C21.088,6.121 16.785,1.815 11.497,1.815 C6.208,1.815 1.906,6.121 1.906,11.416 L1.906,25.490 C1.906,30.785 6.209,35.091 11.497,35.091 C16.785,35.091 21.088,30.785 21.088,25.490 L21.088,11.416 ZM11.497,13.075 C10.583,13.075 9.840,12.331 9.840,11.416 C9.840,10.501 10.583,9.757 11.497,9.757 C12.410,9.757 13.154,10.501 13.154,11.416 C13.154,12.331 12.411,13.075 11.497,13.075 Z"/>
 
 <symbol id="iconCreate" viewBox="0 0 600 200">
 
 <path fill-rule="evenodd"  fill="rgb(60, 60, 60)"
 d="M77.956,-0.011 L66.032,-0.011 C64.907,-0.011 64.007,0.889 64.007,2.014 L64.007,6.177 L15.860,6.177 L15.860,2.014 C15.860,0.889 14.961,-0.011 13.836,-0.011 L2.024,-0.011 C0.899,-0.011 -0.001,0.889 -0.001,2.014 L-0.001,14.277 C-0.001,15.402 0.899,16.302 2.024,16.302 L13.948,16.302 C15.073,16.302 15.973,15.402 15.973,14.277 L15.973,10.114 L38.134,10.114 C37.909,15.065 25.872,38.354 18.223,52.079 C17.773,52.867 17.998,53.879 18.673,54.554 C25.535,60.404 27.222,66.143 27.672,69.067 L25.085,69.067 C23.960,69.067 23.060,69.967 23.060,71.093 L23.060,80.993 C23.060,82.118 23.960,83.018 25.085,83.018 L55.008,83.018 C56.133,83.018 57.033,82.118 57.033,80.993 L57.033,71.093 C57.033,69.967 56.133,69.067 55.008,69.067 L52.420,69.067 C52.870,66.143 54.558,60.404 61.420,54.554 C62.095,53.992 62.320,52.867 61.870,52.079 C54.220,38.354 42.184,14.952 41.959,10.114 L64.007,10.114 L64.007,14.277 C64.007,15.402 64.907,16.302 66.032,16.302 L77.956,16.302 C79.081,16.302 79.981,15.402 79.981,14.277 L79.981,2.014 C79.981,0.889 79.081,-0.011 77.956,-0.011 ZM11.923,12.252 L3.936,12.252 L3.936,3.926 L11.923,3.926 L11.923,12.252 ZM40.046,45.216 C41.509,45.216 42.634,46.341 42.634,47.804 C42.634,49.267 41.509,50.392 40.046,50.392 C38.584,50.392 37.459,49.267 37.459,47.804 C37.459,46.454 38.696,45.216 40.046,45.216 ZM53.095,78.855 L27.110,78.855 L27.110,72.893 L29.810,72.893 L50.396,72.893 L53.095,72.893 L53.095,78.855 ZM48.483,68.955 L31.609,68.955 C31.159,65.692 29.472,59.167 22.385,52.529 C25.085,47.579 33.184,32.728 38.021,21.702 L38.021,41.616 C35.434,42.404 33.522,44.878 33.522,47.804 C33.522,51.404 36.447,54.329 40.046,54.329 C43.646,54.329 46.571,51.404 46.571,47.804 C46.571,44.878 44.658,42.516 42.071,41.616 L42.071,21.590 C47.021,32.616 55.008,47.466 57.707,52.529 C50.621,59.167 48.933,65.692 48.483,68.955 ZM76.044,12.252 L68.057,12.252 L68.057,8.539 C68.057,8.427 68.057,8.314 68.057,8.202 C68.057,8.089 68.057,7.977 68.057,7.864 L68.057,4.039 L76.044,4.039 L76.044,12.252 Z"/>
       </symbol>
 <symbol id="iconUse" viewBox="0 0 600 200">
 <path fill-rule="evenodd"  fill="rgb(60, 60, 60)"
 d="M76.921,75.997 L2.078,75.997 C0.929,75.997 -0.002,75.057 -0.002,73.899 L-0.002,12.982 L-0.002,2.093 C-0.002,0.934 0.929,-0.006 2.078,-0.006 L76.921,-0.006 C78.069,-0.006 79.000,0.933 79.000,2.093 L79.000,12.982 L79.000,73.899 C79.000,75.058 78.069,75.997 76.921,75.997 ZM74.842,4.192 L4.156,4.192 L4.156,10.883 L74.842,10.883 L74.842,4.192 ZM74.842,15.080 L4.156,15.080 L4.156,71.800 L74.842,71.800 L74.842,15.080 ZM27.748,34.625 C28.459,33.908 29.610,33.908 30.321,34.625 C31.032,35.342 31.032,36.504 30.321,37.221 L25.957,41.628 L30.331,46.043 C31.041,46.760 31.041,47.922 30.331,48.639 C29.976,48.997 29.510,49.177 29.045,49.177 C28.579,49.177 28.115,48.997 27.759,48.638 L22.099,42.926 C21.388,42.209 21.388,41.046 22.099,40.329 L27.748,34.625 ZM39.752,32.847 C40.000,31.864 40.996,31.273 41.964,31.522 C42.938,31.772 43.526,32.773 43.278,33.756 L38.654,52.037 C38.444,52.866 37.704,53.418 36.893,53.418 C36.744,53.418 36.592,53.400 36.441,53.361 C35.467,53.111 34.881,52.111 35.129,51.128 L39.752,32.847 ZM48.666,34.624 C49.376,33.907 50.529,33.907 51.238,34.624 L56.898,40.337 C57.240,40.681 57.432,41.148 57.432,41.635 C57.432,42.122 57.240,42.588 56.898,42.933 L51.247,48.637 C50.892,48.997 50.427,49.177 49.962,49.177 C49.497,49.177 49.030,48.997 48.676,48.638 C47.965,47.921 47.965,46.759 48.676,46.042 L53.041,41.636 L48.666,37.221 C47.956,36.503 47.956,35.342 48.666,34.624 ZM9.181,6.069 C9.984,6.069 10.635,6.727 10.635,7.537 C10.635,8.348 9.984,9.005 9.181,9.005 C8.377,9.005 7.726,8.348 7.726,7.537 C7.726,6.727 8.377,6.069 9.181,6.069 ZM13.531,6.070 C14.334,6.070 14.985,6.727 14.985,7.537 C14.985,8.348 14.334,9.004 13.531,9.004 C12.729,9.004 12.078,8.348 12.078,7.537 C12.078,6.727 12.729,6.070 13.531,6.070 ZM17.881,6.069 C18.684,6.069 19.335,6.727 19.335,7.537 C19.335,8.348 18.684,9.005 17.881,9.005 C17.078,9.005 16.427,8.348 16.427,7.537 C16.427,6.727 17.078,6.069 17.881,6.069 Z"/>
       </symbol>
</svg>




       