<svg xmlns="http://www.w3.org/2000/svg"
	 width="92px" height="92px" viewBox="0 0 92 92">
<path fill="#999999" class="st0" d="M46,92C20.6,92,0,71.4,0,46C0,20.6,20.6,0,46,0c25.4,0,46,20.6,46,46C92,71.4,71.4,92,46,92z M46,3.1
	C22.4,3.1,3.1,22.4,3.1,46c0,23.6,19.2,42.9,42.9,42.9c23.6,0,42.9-19.2,42.9-42.9C88.9,22.4,69.6,3.1,46,3.1z M47.8,56.6
	c-0.6,0.6-1.6,0.6-2.2,0L30.3,41.3c-0.3-0.3-0.5-0.7-0.5-1.1c0-0.4,0.2-0.8,0.5-1.1c0.6-0.6,1.6-0.6,2.2,0l14.1,14.1l14.1-14.1
	c0.6-0.6,1.6-0.6,2.2,0c0.6,0.6,0.6,1.6,0,2.2L47.8,56.6z"/>
</svg>
