<svg xmlns="http://www.w3.org/2000/svg"
	 width="25px" height="17px" viewBox="0 0 25 17">
<path d="M10.2,7.5c0,0,2.3-0.2,2.3-3c0-2.8-1.9-4.2-4.2-4.2H0.5v15.8h7.7c0,0,4.7,0.2,4.7-4.7C12.9,11.5,13.1,7.5,10.2,7.5z
	 M3.9,3.1h4.3c0,0,1,0,1,1.6S8.6,6.6,7.9,6.6H3.9V3.1z M8,13.3H3.9V9.1h4.3c0,0,1.6,0,1.6,2.2C9.8,13.1,8.6,13.3,8,13.3z M19.2,4.3
	c-5.7,0-5.7,6.1-5.7,6.1s-0.4,6,5.7,6c0,0,5.1,0.3,5.1-4.2h-2.6c0,0,0.1,1.7-2.4,1.7c0,0-2.6,0.2-2.6-2.8h7.7
	C24.4,11.2,25.2,4.3,19.2,4.3z M21.6,9.1h-4.9c0,0,0.3-2.4,2.6-2.4C21.6,6.6,21.6,9.1,21.6,9.1z M22.2,1.2H16v1.9h6.1L22.2,1.2
	L22.2,1.2z"/>
</svg>
