<svg xmlns="http://www.w3.org/2000/svg"
	 width="75px" height="132px" viewBox="0 0 75 132">
<path class="st0" fill="#005494" d="M65.4,0H9.6C4.3,0,0,4.3,0,9.6v112.8c0,5.3,4.3,9.6,9.6,9.6h55.7c5.3,0,9.6-4.3,9.6-9.6V9.6
	C75,4.3,70.7,0,65.4,0z M23.7,5.8h27.5c0.7,0,1.3,1,1.3,2.3c0,1.3-0.6,2.3-1.3,2.3H23.7c-0.7,0-1.3-1-1.3-2.3
	C22.5,6.9,23,5.8,23.7,5.8z M37.5,122.5c-3.4,0-6.2-2.7-6.2-6.1c0-3.4,2.8-6.1,6.2-6.1c3.4,0,6.2,2.7,6.2,6.1
	C43.7,119.8,40.9,122.5,37.5,122.5z M67.8,101.5H7.2V16.2h60.6V101.5z"/>
</svg>
