<svg xmlns="http://www.w3.org/2000/svg" 
    width="192px" height="148.5px" viewBox="0 0 192 148.5">
<path class="st0"  fill="#005494" d="M141.5,146.8V63.1H192v83.7H141.5z M167.4,143.2c1.6,0,2.9-1.3,2.9-2.9s-1.3-2.9-2.9-2.9
	c-1.6,0-2.9,1.3-2.9,2.9C164.4,141.9,165.8,143.2,167.4,143.2z M167.8,66.6c-0.7,0-1.2,0.5-1.2,1.2c0,0.7,0.5,1.2,1.2,1.2
	c0.7,0,1.2-0.5,1.2-1.2C169.1,67.1,168.5,66.6,167.8,66.6z M175.1,70.6h-14.5v1.1h14.5V70.6z M183.9,75.9l-34.3,0v57.5
	c6.5,0.1,21.2,0,34.3-0.1V75.9z M157.8,10.9H37.2v21.8H26.6V0.5h141.8v58.6h-10.6V10.9z M75.3,148.5H0V37.4h75.2V148.5z M39.2,143
	c2,0,3.6-1.6,3.6-3.6c0-2-1.6-3.6-3.6-3.6c-2,0-3.6,1.6-3.6,3.6C35.6,141.3,37.2,143,39.2,143z M10.9,48.1v82h53.5l0-82H10.9z
	 M136,92.5H80.1V82H136V92.5z M99.5,96.8H136v14.8H80.1v-5.7h37.4v-2.8H80.1v-6.3h15.4H99.5z"/>
</svg>
