<svg 
 xmlns="http://www.w3.org/2000/svg"
 xmlns:xlink="http://www.w3.org/1999/xlink"
 width="42px" height="42px">
<path fill-rule="evenodd"  opacity="0.902" fill="rgb(255, 255, 255)"
 d="M41.244,1.731 C40.242,0.730 38.605,0.730 37.604,1.731 L32.387,6.953 C30.249,5.531 27.796,4.825 25.333,4.825 C22.052,4.825 18.666,6.078 16.271,8.582 L8.581,16.273 C4.194,20.655 3.654,27.430 6.949,32.402 L1.732,37.625 C0.732,38.627 0.732,40.249 1.732,41.250 C2.232,41.751 2.887,42.002 3.543,42.002 C4.200,42.002 4.854,41.751 5.356,41.250 L10.572,36.027 C12.710,37.450 15.179,38.156 17.642,38.156 C20.815,38.156 24.201,36.904 26.704,34.400 L34.380,26.709 C38.766,22.327 39.306,15.551 36.011,10.578 L41.243,5.356 C42.245,4.355 42.245,2.732 41.244,1.731 ZM33.008,17.645 C33.008,19.698 32.207,21.630 30.755,23.083 L23.079,30.774 C21.622,32.227 19.588,33.028 17.642,33.028 C16.481,33.028 15.370,32.743 14.349,32.257 L18.065,28.431 C19.066,27.430 19.066,25.807 18.065,24.805 C17.172,23.804 15.549,23.804 14.548,24.805 L10.724,28.632 C10.232,27.614 9.952,26.503 9.952,25.336 C9.952,23.283 10.753,21.351 12.205,19.898 L19.788,12.207 C21.240,10.754 23.280,9.953 25.333,9.953 C26.494,9.953 27.600,10.239 28.622,10.725 L24.722,14.631 C23.720,15.633 23.720,17.255 24.722,18.256 C25.222,18.758 25.877,19.008 26.534,19.008 C27.185,19.008 27.841,18.758 28.342,18.256 L32.237,14.351 C32.727,15.367 33.008,16.478 33.008,17.645 Z"/>
</svg>