<svg xmlns="http://www.w3.org/2000/svg"
	 width="25px" height="20px" viewBox="0 0 25 20">
<path d="M24.5,2.6c-0.9,0.4-1.8,0.7-2.8,0.8c1-0.6,1.8-1.6,2.2-2.7c-1,0.6-2,1-3.1,1.2c-0.9-1-2.2-1.6-3.6-1.6
	c-2.7,0-4.9,2.2-4.9,4.9c0,0.4,0,0.8,0.1,1.1C8.2,6.2,4.6,4.2,2.2,1.2C1.7,1.9,1.5,2.8,1.5,3.7c0,1.7,0.9,3.2,2.2,4.1
	c-0.8,0-1.6-0.2-2.2-0.6c0,0,0,0,0,0.1c0,2.4,1.7,4.4,4,4.8c-0.4,0.1-0.8,0.2-1.3,0.2c-0.3,0-0.6,0-0.9-0.1c0.6,2,2.4,3.4,4.6,3.4
	c-1.7,1.3-3.8,2.1-6.1,2.1c-0.4,0-0.8,0-1.2-0.1C2.7,19,5.3,19.8,8,19.8c9.1,0,14-7.5,14-14c0-0.2,0-0.4,0-0.6
	C23,4.5,23.8,3.6,24.5,2.6z"/>
</svg>
